{
  "accessors": [
    {
      "bufferView": 2,
      "componentType": 5126,
      "count": 3070,
      "max": [
        40.871299743652344,
        109.37030029296875,
        37.081298828125
      ],
      "min": [
        -34.572399139404297,
        -68.170196533203125,
        -1.7710000276565552
      ],
      "type": "VEC3"
    },
    {
      "bufferView": 2,
      "byteOffset": 36840,
      "componentType": 5126,
      "count": 3070,
      "max": [
        0.99998557567596436,
        1,
        0.99998760223388672
      ],
      "min": [
        -0.99999010562896729,
        -0.99999797344207764,
        -1
      ],
      "type": "VEC3"
    },
    {
      "bufferView": 3,
      "componentType": 5126,
      "count": 3070,
      "max": [
        0.99520915746688843,
        0.99972516298294067,
        0.99933624267578125,
        1
      ],
      "min": [
        -0.99997556209564209,
        -0.9996686577796936,
        -0.99977099895477295,
        -1
      ],
      "type": "VEC4"
    },
    {
      "bufferView": 1,
      "componentType": 5126,
      "count": 3070,
      "max": [
        0.993399977684021,
        0.99949997663497925
      ],
      "min": [
        0.00050000002374872565,
        0.00050000002374872565
      ],
      "type": "VEC2"
    },
    {
      "bufferView": 0,
      "componentType": 5125,
      "count": 10938,
      "max": [
        3069
      ],
      "min": [
        0
      ],
      "type": "SCALAR"
    }
  ],
  "asset": {
    "extras": {
      "author": "Danwolve (https://sketchfab.com/Danwolve)",
      "license": "CC-BY-4.0 (http://creativecommons.org/licenses/by/4.0/)",
      "source": "https://sketchfab.com/3d-models/pc-mouse-gaming-razer-c7a1a915a0a44a128f9e91e0be1a2316",
      "title": "PC Mouse Gaming - Razer"
    },
    "generator": "Sketchfab-4.74.0",
    "version": "2.0"
  },
  "bufferViews": [
    {
      "buffer": 0,
      "byteLength": 43752,
      "byteOffset": 0,
      "name": "floatBufferViews",
      "target": 34963
    },
    {
      "buffer": 0,
      "byteLength": 24560,
      "byteOffset": 43752,
      "byteStride": 8,
      "name": "floatBufferViews",
      "target": 34962
    },
    {
      "buffer": 0,
      "byteLength": 73680,
      "byteOffset": 68312,
      "byteStride": 12,
      "name": "floatBufferViews",
      "target": 34962
    },
    {
      "buffer": 0,
      "byteLength": 49120,
      "byteOffset": 141992,
      "byteStride": 16,
      "name": "floatBufferViews",
      "target": 34962
    }
  ],
  "buffers": [
    {
      "byteLength": 191112,
      "uri": "scene.bin"
    }
  ],
  "images": [
    {
      "uri": "textures/wire_196088225_baseColor.png"
    },
    {
      "uri": "textures/wire_196088225_emissive.png"
    },
    {
      "uri": "textures/wire_196088225_metallicRoughness.png"
    },
    {
      "uri": "textures/wire_196088225_normal.png"
    }
  ],
  "materials": [
    {
      "doubleSided": true,
      "emissiveFactor": [
        1,
        1,
        1
      ],
      "emissiveTexture": {
        "index": 1,
        "texCoord": 0
      },
      "name": "wire_196088225",
      "normalTexture": {
        "index": 3,
        "scale": 0.5,
        "texCoord": 0
      },
      "pbrMetallicRoughness": {
        "baseColorFactor": [
          1,
          1,
          1,
          1
        ],
        "baseColorTexture": {
          "index": 0,
          "texCoord": 0
        },
        "metallicFactor": 1,
        "metallicRoughnessTexture": {
          "index": 2,
          "texCoord": 0
        },
        "roughnessFactor": 1
      }
    }
  ],
  "meshes": [
    {
      "primitives": [
        {
          "attributes": {
            "NORMAL": 1,
            "POSITION": 0,
            "TANGENT": 2,
            "TEXCOORD_0": 3
          },
          "indices": 4,
          "material": 0,
          "mode": 4
        }
      ]
    }
  ],
  "nodes": [
    {
      "children": [
        1
      ],
      "name": "RootNode (gltf orientation matrix)",
      "rotation": [
        -0.70710678118654746,
        -0,
        -0,
        0.70710678118654757
      ]
    },
    {
      "children": [
        2
      ],
      "name": "RootNode (model correction matrix)"
    },
    {
      "children": [
        3
      ],
      "name": "50f57f8173b14e738e62c68258859baa.obj.cleaner.materialmerger.gles"
    },
    {
      "mesh": 0,
      "name": ""
    }
  ],
  "samplers": [
    {
      "magFilter": 9729,
      "minFilter": 9987,
      "wrapS": 10497,
      "wrapT": 10497
    }
  ],
  "scene": 0,
  "scenes": [
    {
      "name": "OSG_Scene",
      "nodes": [
        0
      ]
    }
  ],
  "textures": [
    {
      "sampler": 0,
      "source": 0
    },
    {
      "sampler": 0,
      "source": 1
    },
    {
      "sampler": 0,
      "source": 2
    },
    {
      "sampler": 0,
      "source": 3
    }
  ]
}

