{
  "accessors": [
    {
      "bufferView": 2,
      "componentType": 5126,
      "count": 574,
      "max": [
        0.47807610034942627,
        0.5,
        0.5
      ],
      "min": [
        -4.410364151000977,
        -0.5,
        -0.5
      ],
      "type": "VEC3"
    },
    {
      "bufferView": 2,
      "byteOffset": 6888,
      "componentType": 5126,
      "count": 574,
      "max": [
        0.933742105960846,
        1.0,
        1.0
      ],
      "min": [
        -1.0,
        -1.0,
        -1.0
      ],
      "type": "VEC3"
    },
    {
      "bufferView": 1,
      "componentType": 5126,
      "count": 574,
      "max": [
        0.8745623230934143,
        0.9995623230934143
      ],
      "min": [
        0.12543770670890808,
        0.0
      ],
      "type": "VEC2"
    },
    {
      "bufferView": 0,
      "componentType": 5125,
      "count": 2592,
      "type": "SCALAR"
    },
    {
      "bufferView": 2,
      "byteOffset": 13776,
      "componentType": 5126,
      "count": 65,
      "max": [
        0.27963492274284363,
        0.4911766052246094,
        0.4965271055698395
      ],
      "min": [
        -3.5990498065948486,
        -0.49072587490081787,
        -0.49558225274086
      ],
      "type": "VEC3"
    },
    {
      "bufferView": 2,
      "byteOffset": 14556,
      "componentType": 5126,
      "count": 65,
      "max": [
        1.0,
        0.0005577605334110558,
        0.9977204203605652
      ],
      "min": [
        0.06748408079147339,
        -0.000555597071070224,
        -0.9977204203605652
      ],
      "type": "VEC3"
    },
    {
      "bufferView": 1,
      "byteOffset": 4592,
      "componentType": 5126,
      "count": 65,
      "max": [
        0.8728874921798706,
        0.24779412150382996
      ],
      "min": [
        0.6266597509384155,
        0.0023185296449810266
      ],
      "type": "VEC2"
    },
    {
      "bufferView": 0,
      "byteOffset": 10368,
      "componentType": 5125,
      "count": 288,
      "type": "SCALAR"
    },
    {
      "bufferView": 2,
      "byteOffset": 15336,
      "componentType": 5126,
      "count": 248,
      "max": [
        2.2497620582580566,
        5.27030086517334,
        2.913586378097534
      ],
      "min": [
        -0.27296146750450134,
        -0.21427908539772034,
        -2.913586378097534
      ],
      "type": "VEC3"
    },
    {
      "bufferView": 2,
      "byteOffset": 18312,
      "componentType": 5126,
      "count": 248,
      "max": [
        0.9994897842407227,
        1.0,
        0.9647104740142822
      ],
      "min": [
        -0.9996675848960876,
        -1.0,
        -0.9647104144096375
      ],
      "type": "VEC3"
    },
    {
      "bufferView": 1,
      "byteOffset": 5112,
      "componentType": 5126,
      "count": 248,
      "max": [
        0.875,
        0.9999995231628418
      ],
      "min": [
        0.125,
        0.0
      ],
      "type": "VEC2"
    },
    {
      "bufferView": 0,
      "byteOffset": 11520,
      "componentType": 5125,
      "count": 684,
      "type": "SCALAR"
    }
  ],
  "asset": {
    "extras": {
      "author": "Arnau Rocher (https://sketchfab.com/ArnauRocher)",
      "license": "CC-BY-4.0 (http://creativecommons.org/licenses/by/4.0/)",
      "source": "https://sketchfab.com/3d-models/curved-monitor-5aeacd0cc5f649a4b92ce90bca6917e7",
      "title": "Curved Monitor"
    },
    "generator": "Sketchfab-11.64.0",
    "version": "2.0"
  },
  "bufferViews": [
    {
      "buffer": 0,
      "byteLength": 14256,
      "name": "floatBufferViews",
      "target": 34963
    },
    {
      "buffer": 0,
      "byteLength": 7096,
      "byteOffset": 14256,
      "byteStride": 8,
      "name": "floatBufferViews",
      "target": 34962
    },
    {
      "buffer": 0,
      "byteLength": 21288,
      "byteOffset": 21352,
      "byteStride": 12,
      "name": "floatBufferViews",
      "target": 34962
    }
  ],
  "buffers": [
    {
      "byteLength": 42640,
      "uri": "scene.bin"
    }
  ],
  "materials": [
    {
      "doubleSided": true,
      "name": "MAT_Plastic",
      "pbrMetallicRoughness": {
        "baseColorFactor": [
          0.0,
          0.0,
          0.0,
          1.0
        ],
        "metallicFactor": 0.0,
        "roughnessFactor": 0.4759635554
      }
    },
    {
      "doubleSided": true,
      "name": "MAT_Screen",
      "pbrMetallicRoughness": {
        "baseColorFactor": [
          0.0693571372228666,
          0.0693571372228666,
          0.0693571372228666,
          1.0
        ],
        "metallicFactor": 0.0,
        "roughnessFactor": 0.15
      }
    }
  ],
  "meshes": [
    {
      "name": "Curved_Monitor_MAT_Plastic_0",
      "primitives": [
        {
          "attributes": {
            "NORMAL": 1,
            "POSITION": 0,
            "TEXCOORD_0": 2
          },
          "indices": 3,
          "material": 0,
          "mode": 4
        }
      ]
    },
    {
      "name": "Curved_Monitor_MAT_Screen_0",
      "primitives": [
        {
          "attributes": {
            "NORMAL": 5,
            "POSITION": 4,
            "TEXCOORD_0": 6
          },
          "indices": 7,
          "material": 1,
          "mode": 4
        }
      ]
    },
    {
      "name": "Peana_MAT_Plastic_0",
      "primitives": [
        {
          "attributes": {
            "NORMAL": 9,
            "POSITION": 8,
            "TEXCOORD_0": 10
          },
          "indices": 11,
          "material": 0,
          "mode": 4
        }
      ]
    }
  ],
  "nodes": [
    {
      "children": [
        1
      ],
      "matrix": [
        1.0,
        0.0,
        0.0,
        0.0,
        0.0,
        2.220446049250313e-16,
        -1.0,
        0.0,
        0.0,
        1.0,
        2.220446049250313e-16,
        0.0,
        0.0,
        0.0,
        0.0,
        1.0
      ],
      "name": "Sketchfab_model"
    },
    {
      "children": [
        2
      ],
      "matrix": [
        0.009999999776482582,
        0.0,
        0.0,
        0.0,
        0.0,
        0.0,
        0.009999999776482582,
        0.0,
        0.0,
        -0.009999999776482582,
        0.0,
        0.0,
        0.0,
        0.0,
        0.0,
        1.0
      ],
      "name": "356e21ee1f1e40c6828fcd2e1a3a355b.fbx"
    },
    {
      "children": [
        3
      ],
      "name": "RootNode"
    },
    {
      "children": [
        4,
        7
      ],
      "name": "Curved_Monitor"
    },
    {
      "children": [
        5,
        6
      ],
      "matrix": [
        0.2630704057164316,
        0.03184799112850594,
        0.0,
        0.0,
        -0.8965798193942794,
        7.405918190994013,
        0.0,
        0.0,
        0.0,
        0.0,
        15.134044647216797,
        0.0,
        2.0495471954345703,
        4.939659595489502,
        0.0,
        1.0
      ],
      "name": "Curved_Monitor"
    },
    {
      "mesh": 0,
      "name": "Curved_Monitor_MAT_Plastic_0"
    },
    {
      "mesh": 1,
      "name": "Curved_Monitor_MAT_Screen_0"
    },
    {
      "children": [
        8
      ],
      "matrix": [
        1.0,
        0.0,
        0.0,
        0.0,
        0.0,
        1.0,
        0.0,
        0.0,
        0.0,
        0.0,
        1.0,
        0.0,
        0.07962357997894287,
        0.0,
        0.0,
        1.0
      ],
      "name": "Peana"
    },
    {
      "mesh": 2,
      "name": "Peana_MAT_Plastic_0"
    }
  ],
  "scene": 0,
  "scenes": [
    {
      "name": "Sketchfab_Scene",
      "nodes": [
        0
      ]
    }
  ]
}
