{
  "accessors": [
    {
      "bufferView": 2,
      "componentType": 5126,
      "count": 1526,
      "max": [
        31.35175132751465,
        24.310321807861328,
        89.40213012695313
      ],
      "min": [
        24.83359146118164,
        -0.9389380216598511,
        -1.0279229879379272
      ],
      "type": "VEC3"
    },
    {
      "bufferView": 2,
      "byteOffset": 18312,
      "componentType": 5126,
      "count": 1526,
      "max": [
        1.0,
        1.0,
        0.9989938139915466
      ],
      "min": [
        -1.0,
        -0.9999977350234985,
        -0.9999769330024719
      ],
      "type": "VEC3"
    },
    {
      "bufferView": 1,
      "componentType": 5126,
      "count": 1526,
      "max": [
        0.9980469942092896,
        0.9209139943122864
      ],
      "min": [
        0.0019529999699443579,
        0.0019530057907104492
      ],
      "type": "VEC2"
    },
    {
      "bufferView": 1,
      "byteOffset": 12208,
      "componentType": 5126,
      "count": 1526,
      "max": [
        0.9980469942092896,
        0.9209139943122864
      ],
      "min": [
        0.0019529999699443579,
        0.0019530057907104492
      ],
      "type": "VEC2"
    },
    {
      "bufferView": 1,
      "byteOffset": 24416,
      "componentType": 5126,
      "count": 1526,
      "max": [
        0.9980469942092896,
        0.9209139943122864
      ],
      "min": [
        0.0019529999699443579,
        0.0019530057907104492
      ],
      "type": "VEC2"
    },
    {
      "bufferView": 0,
      "componentType": 5125,
      "count": 5412,
      "type": "SCALAR"
    },
    {
      "bufferView": 2,
      "byteOffset": 36624,
      "componentType": 5126,
      "count": 1526,
      "max": [
        6.920042037963867,
        24.310321807861328,
        89.40213012695313
      ],
      "min": [
        0.40188199281692505,
        -0.9389380216598511,
        -1.0279229879379272
      ],
      "type": "VEC3"
    },
    {
      "bufferView": 2,
      "byteOffset": 54936,
      "componentType": 5126,
      "count": 1526,
      "max": [
        1.0,
        1.0,
        0.9989938139915466
      ],
      "min": [
        -1.0,
        -0.9999977946281433,
        -0.9999769330024719
      ],
      "type": "VEC3"
    },
    {
      "bufferView": 1,
      "byteOffset": 36624,
      "componentType": 5126,
      "count": 1526,
      "max": [
        0.9980469942092896,
        0.9209139943122864
      ],
      "min": [
        0.0019529999699443579,
        0.0019530057907104492
      ],
      "type": "VEC2"
    },
    {
      "bufferView": 1,
      "byteOffset": 48832,
      "componentType": 5126,
      "count": 1526,
      "max": [
        0.9980469942092896,
        0.9209139943122864
      ],
      "min": [
        0.0019529999699443579,
        0.0019530057907104492
      ],
      "type": "VEC2"
    },
    {
      "bufferView": 1,
      "byteOffset": 61040,
      "componentType": 5126,
      "count": 1526,
      "max": [
        0.9980469942092896,
        0.9209139943122864
      ],
      "min": [
        0.0019529999699443579,
        0.0019530057907104492
      ],
      "type": "VEC2"
    },
    {
      "bufferView": 0,
      "byteOffset": 21648,
      "componentType": 5125,
      "count": 5412,
      "type": "SCALAR"
    },
    {
      "bufferView": 2,
      "byteOffset": 73248,
      "componentType": 5126,
      "count": 8640,
      "max": [
        32.15593338012695,
        25.173397064208984,
        90.40721130371094
      ],
      "min": [
        24.19415283203125,
        -2.041645050048828,
        -1.9603309631347656
      ],
      "type": "VEC3"
    },
    {
      "bufferView": 2,
      "byteOffset": 176928,
      "componentType": 5126,
      "count": 8640,
      "max": [
        1.0,
        1.0,
        1.0
      ],
      "min": [
        -1.0,
        -1.0,
        -1.0
      ],
      "type": "VEC3"
    },
    {
      "bufferView": 1,
      "byteOffset": 73248,
      "componentType": 5126,
      "count": 8640,
      "max": [
        0.9897029995918274,
        0.9980469942092896
      ],
      "min": [
        0.0019529999699443579,
        0.0019530057907104492
      ],
      "type": "VEC2"
    },
    {
      "bufferView": 1,
      "byteOffset": 142368,
      "componentType": 5126,
      "count": 8640,
      "max": [
        0.9897029995918274,
        0.9980469942092896
      ],
      "min": [
        0.0019529999699443579,
        0.0019530057907104492
      ],
      "type": "VEC2"
    },
    {
      "bufferView": 1,
      "byteOffset": 211488,
      "componentType": 5126,
      "count": 8640,
      "max": [
        0.9897029995918274,
        0.9980469942092896
      ],
      "min": [
        0.0019529999699443579,
        0.0019530057907104492
      ],
      "type": "VEC2"
    },
    {
      "bufferView": 0,
      "byteOffset": 43296,
      "componentType": 5125,
      "count": 12960,
      "type": "SCALAR"
    },
    {
      "bufferView": 2,
      "byteOffset": 280608,
      "componentType": 5126,
      "count": 8640,
      "max": [
        7.5594801902771,
        25.173397064208984,
        90.40721130371094
      ],
      "min": [
        -0.4022989869117737,
        -2.041645050048828,
        -1.9603309631347656
      ],
      "type": "VEC3"
    },
    {
      "bufferView": 2,
      "byteOffset": 384288,
      "componentType": 5126,
      "count": 8640,
      "max": [
        1.0,
        1.0,
        1.0
      ],
      "min": [
        -1.0,
        -1.0,
        -1.0
      ],
      "type": "VEC3"
    },
    {
      "bufferView": 1,
      "byteOffset": 280608,
      "componentType": 5126,
      "count": 8640,
      "max": [
        0.9897029995918274,
        0.9980469942092896
      ],
      "min": [
        0.0019529999699443579,
        0.0019530057907104492
      ],
      "type": "VEC2"
    },
    {
      "bufferView": 1,
      "byteOffset": 349728,
      "componentType": 5126,
      "count": 8640,
      "max": [
        0.9897029995918274,
        0.9980469942092896
      ],
      "min": [
        0.0019529999699443579,
        0.0019530057907104492
      ],
      "type": "VEC2"
    },
    {
      "bufferView": 1,
      "byteOffset": 418848,
      "componentType": 5126,
      "count": 8640,
      "max": [
        0.9897029995918274,
        0.9980469942092896
      ],
      "min": [
        0.0019529999699443579,
        0.0019530057907104492
      ],
      "type": "VEC2"
    },
    {
      "bufferView": 0,
      "byteOffset": 95136,
      "componentType": 5125,
      "count": 12960,
      "type": "SCALAR"
    },
    {
      "bufferView": 2,
      "byteOffset": 487968,
      "componentType": 5126,
      "count": 4974,
      "max": [
        36.475589752197266,
        18.9879207611084,
        56.826194763183594
      ],
      "min": [
        30.804384231567383,
        8.290166854858398,
        36.70182418823242
      ],
      "type": "VEC3"
    },
    {
      "bufferView": 2,
      "byteOffset": 547656,
      "componentType": 5126,
      "count": 4974,
      "max": [
        1.0,
        1.0,
        1.0
      ],
      "min": [
        -1.0,
        -1.0,
        -1.0
      ],
      "type": "VEC3"
    },
    {
      "bufferView": 1,
      "byteOffset": 487968,
      "componentType": 5126,
      "count": 4974,
      "max": [
        0.9980469942092896,
        0.9888030290603638
      ],
      "min": [
        0.0019529999699443579,
        0.0019530057907104492
      ],
      "type": "VEC2"
    },
    {
      "bufferView": 1,
      "byteOffset": 527760,
      "componentType": 5126,
      "count": 4974,
      "max": [
        0.9980469942092896,
        0.9888030290603638
      ],
      "min": [
        0.0019529999699443579,
        0.0019530057907104492
      ],
      "type": "VEC2"
    },
    {
      "bufferView": 1,
      "byteOffset": 567552,
      "componentType": 5126,
      "count": 4974,
      "max": [
        0.9980469942092896,
        0.9888030290603638
      ],
      "min": [
        0.0019529999699443579,
        0.0019530057907104492
      ],
      "type": "VEC2"
    },
    {
      "bufferView": 0,
      "byteOffset": 146976,
      "componentType": 5125,
      "count": 16104,
      "type": "SCALAR"
    },
    {
      "bufferView": 2,
      "byteOffset": 607344,
      "componentType": 5126,
      "count": 4974,
      "max": [
        0.9492490291595459,
        18.9879207611084,
        56.826194763183594
      ],
      "min": [
        -4.721953868865967,
        8.290166854858398,
        36.70182418823242
      ],
      "type": "VEC3"
    },
    {
      "bufferView": 2,
      "byteOffset": 667032,
      "componentType": 5126,
      "count": 4974,
      "max": [
        1.0,
        1.0,
        1.0
      ],
      "min": [
        -1.0,
        -1.0,
        -1.0
      ],
      "type": "VEC3"
    },
    {
      "bufferView": 1,
      "byteOffset": 607344,
      "componentType": 5126,
      "count": 4974,
      "max": [
        0.9980469942092896,
        0.9888030290603638
      ],
      "min": [
        0.0019529999699443579,
        0.0019530057907104492
      ],
      "type": "VEC2"
    },
    {
      "bufferView": 1,
      "byteOffset": 647136,
      "componentType": 5126,
      "count": 4974,
      "max": [
        0.9980469942092896,
        0.9888030290603638
      ],
      "min": [
        0.0019529999699443579,
        0.0019530057907104492
      ],
      "type": "VEC2"
    },
    {
      "bufferView": 1,
      "byteOffset": 686928,
      "componentType": 5126,
      "count": 4974,
      "max": [
        0.9980469942092896,
        0.9888030290603638
      ],
      "min": [
        0.0019529999699443579,
        0.0019530057907104492
      ],
      "type": "VEC2"
    },
    {
      "bufferView": 0,
      "byteOffset": 211392,
      "componentType": 5125,
      "count": 16104,
      "type": "SCALAR"
    },
    {
      "bufferView": 2,
      "byteOffset": 726720,
      "componentType": 5126,
      "count": 222,
      "max": [
        25.66488265991211,
        27.163036346435547,
        81.80377197265625
      ],
      "min": [
        6.088749885559082,
        4.881931781768799,
        10.37603759765625
      ],
      "type": "VEC3"
    },
    {
      "bufferView": 2,
      "byteOffset": 729384,
      "componentType": 5126,
      "count": 222,
      "max": [
        1.0,
        0.9997790455818176,
        0.9999998211860657
      ],
      "min": [
        -1.0,
        -1.0,
        -0.9915107488632202
      ],
      "type": "VEC3"
    },
    {
      "bufferView": 1,
      "byteOffset": 726720,
      "componentType": 5126,
      "count": 222,
      "max": [
        0.9980469942092896,
        0.9868490099906921
      ],
      "min": [
        0.0019529999699443579,
        0.0019530057907104492
      ],
      "type": "VEC2"
    },
    {
      "bufferView": 1,
      "byteOffset": 728496,
      "componentType": 5126,
      "count": 222,
      "max": [
        0.9980469942092896,
        0.9868490099906921
      ],
      "min": [
        0.0019529999699443579,
        0.0019530057907104492
      ],
      "type": "VEC2"
    },
    {
      "bufferView": 1,
      "byteOffset": 730272,
      "componentType": 5126,
      "count": 222,
      "max": [
        0.9980469942092896,
        0.9868490099906921
      ],
      "min": [
        0.0019529999699443579,
        0.0019530057907104492
      ],
      "type": "VEC2"
    },
    {
      "bufferView": 0,
      "byteOffset": 275808,
      "componentType": 5125,
      "count": 480,
      "type": "SCALAR"
    },
    {
      "bufferView": 2,
      "byteOffset": 732048,
      "componentType": 5126,
      "count": 8707,
      "max": [
        39.27555847167969,
        27.441646575927734,
        74.77959442138672
      ],
      "min": [
        -7.53319787979126,
        12.515564918518066,
        18.239410400390625
      ],
      "type": "VEC3"
    },
    {
      "bufferView": 2,
      "byteOffset": 836532,
      "componentType": 5126,
      "count": 8707,
      "max": [
        1.0,
        1.0,
        1.0
      ],
      "min": [
        -1.0,
        -1.0,
        -1.0
      ],
      "type": "VEC3"
    },
    {
      "bufferView": 1,
      "byteOffset": 732048,
      "componentType": 5126,
      "count": 8707,
      "max": [
        0.9980469942092896,
        0.9916639924049377
      ],
      "min": [
        0.0019529999699443579,
        0.0019530057907104492
      ],
      "type": "VEC2"
    },
    {
      "bufferView": 1,
      "byteOffset": 801704,
      "componentType": 5126,
      "count": 8707,
      "max": [
        0.9980469942092896,
        0.9916639924049377
      ],
      "min": [
        0.0019529999699443579,
        0.0019530057907104492
      ],
      "type": "VEC2"
    },
    {
      "bufferView": 1,
      "byteOffset": 871360,
      "componentType": 5126,
      "count": 8707,
      "max": [
        0.9980469942092896,
        0.9916639924049377
      ],
      "min": [
        0.0019529999699443579,
        0.0019530057907104492
      ],
      "type": "VEC2"
    },
    {
      "bufferView": 0,
      "byteOffset": 277728,
      "componentType": 5125,
      "count": 25908,
      "type": "SCALAR"
    },
    {
      "bufferView": 2,
      "byteOffset": 941016,
      "componentType": 5126,
      "count": 6976,
      "max": [
        31.74911880493164,
        27.431102752685547,
        88.87393951416016
      ],
      "min": [
        0.006756999995559454,
        2.0311028957366943,
        0.42705100774765015
      ],
      "type": "VEC3"
    },
    {
      "bufferView": 2,
      "byteOffset": 1024728,
      "componentType": 5126,
      "count": 6976,
      "max": [
        1.0,
        0.9999974966049194,
        0.9999974966049194
      ],
      "min": [
        -1.0,
        -0.9999974370002747,
        -0.9999974370002747
      ],
      "type": "VEC3"
    },
    {
      "bufferView": 1,
      "byteOffset": 941016,
      "componentType": 5126,
      "count": 6976,
      "max": [
        0.9980469942092896,
        0.9867609739303589
      ],
      "min": [
        0.0019529999699443579,
        0.0019530057907104492
      ],
      "type": "VEC2"
    },
    {
      "bufferView": 1,
      "byteOffset": 996824,
      "componentType": 5126,
      "count": 6976,
      "max": [
        0.9980469942092896,
        0.9867609739303589
      ],
      "min": [
        0.0019529999699443579,
        0.0019530057907104492
      ],
      "type": "VEC2"
    },
    {
      "bufferView": 1,
      "byteOffset": 1052632,
      "componentType": 5126,
      "count": 6976,
      "max": [
        0.9980469942092896,
        0.9867609739303589
      ],
      "min": [
        0.0019529999699443579,
        0.0019530057907104492
      ],
      "type": "VEC2"
    },
    {
      "bufferView": 0,
      "byteOffset": 381360,
      "componentType": 5125,
      "count": 32256,
      "type": "SCALAR"
    }
  ],
  "asset": {
    "extras": {
      "author": "Andy woodhead (https://sketchfab.com/Andywoodhead)",
      "license": "CC-BY-4.0 (http://creativecommons.org/licenses/by/4.0/)",
      "source": "https://sketchfab.com/3d-models/tank-ww1-df314bfc712a4df087d46364811aaeb3",
      "title": "Tank - WW1"
    },
    "generator": "Sketchfab-12.0.1",
    "version": "2.0"
  },
  "bufferViews": [
    {
      "buffer": 0,
      "byteLength": 510384,
      "name": "floatBufferViews",
      "target": 34963
    },
    {
      "buffer": 0,
      "byteLength": 1108440,
      "byteOffset": 510384,
      "byteStride": 8,
      "name": "floatBufferViews",
      "target": 34962
    },
    {
      "buffer": 0,
      "byteLength": 1108440,
      "byteOffset": 1618824,
      "byteStride": 12,
      "name": "floatBufferViews",
      "target": 34962
    }
  ],
  "buffers": [
    {
      "byteLength": 2727264,
      "uri": "scene.bin"
    }
  ],
  "images": [
    {
      "uri": "textures/mat0_baseColor.png"
    },
    {
      "uri": "textures/mat0_metallicRoughness.png"
    },
    {
      "uri": "textures/mat1_baseColor.png"
    },
    {
      "uri": "textures/mat1_metallicRoughness.png"
    },
    {
      "uri": "textures/mat2_baseColor.png"
    },
    {
      "uri": "textures/mat2_metallicRoughness.png"
    },
    {
      "uri": "textures/mat3_baseColor.png"
    },
    {
      "uri": "textures/mat3_metallicRoughness.png"
    },
    {
      "uri": "textures/mat4_baseColor.png"
    },
    {
      "uri": "textures/mat4_metallicRoughness.png"
    },
    {
      "uri": "textures/mat5_baseColor.png"
    },
    {
      "uri": "textures/mat5_metallicRoughness.png"
    },
    {
      "uri": "textures/mat6_baseColor.png"
    },
    {
      "uri": "textures/mat6_metallicRoughness.png"
    },
    {
      "uri": "textures/mat7_baseColor.png"
    },
    {
      "uri": "textures/mat7_metallicRoughness.png"
    },
    {
      "uri": "textures/mat8_baseColor.png"
    },
    {
      "uri": "textures/mat8_metallicRoughness.png"
    }
  ],
  "materials": [
    {
      "name": "mat0",
      "pbrMetallicRoughness": {
        "baseColorTexture": {
          "index": 0
        },
        "metallicRoughnessTexture": {
          "index": 1
        }
      }
    },
    {
      "name": "mat1",
      "pbrMetallicRoughness": {
        "baseColorTexture": {
          "index": 2
        },
        "metallicRoughnessTexture": {
          "index": 3
        }
      }
    },
    {
      "name": "mat2",
      "pbrMetallicRoughness": {
        "baseColorTexture": {
          "index": 4
        },
        "metallicRoughnessTexture": {
          "index": 5
        }
      }
    },
    {
      "name": "mat3",
      "pbrMetallicRoughness": {
        "baseColorTexture": {
          "index": 6
        },
        "metallicRoughnessTexture": {
          "index": 7
        }
      }
    },
    {
      "name": "mat4",
      "pbrMetallicRoughness": {
        "baseColorTexture": {
          "index": 8
        },
        "metallicRoughnessTexture": {
          "index": 9
        }
      }
    },
    {
      "name": "mat5",
      "pbrMetallicRoughness": {
        "baseColorTexture": {
          "index": 10
        },
        "metallicRoughnessTexture": {
          "index": 11
        }
      }
    },
    {
      "name": "mat6",
      "pbrMetallicRoughness": {
        "baseColorTexture": {
          "index": 12
        },
        "metallicRoughnessTexture": {
          "index": 13
        }
      }
    },
    {
      "name": "mat7",
      "pbrMetallicRoughness": {
        "baseColorTexture": {
          "index": 14
        },
        "metallicRoughnessTexture": {
          "index": 15
        }
      }
    },
    {
      "name": "mat8",
      "pbrMetallicRoughness": {
        "baseColorTexture": {
          "index": 16
        },
        "metallicRoughnessTexture": {
          "index": 17
        }
      }
    }
  ],
  "meshes": [
    {
      "name": "obj0_mat0_0",
      "primitives": [
        {
          "attributes": {
            "NORMAL": 1,
            "POSITION": 0,
            "TEXCOORD_0": 2,
            "TEXCOORD_1": 3,
            "TEXCOORD_2": 4
          },
          "indices": 5,
          "material": 0,
          "mode": 4
        }
      ]
    },
    {
      "name": "obj0_mat0_1",
      "primitives": [
        {
          "attributes": {
            "NORMAL": 7,
            "POSITION": 6,
            "TEXCOORD_0": 8,
            "TEXCOORD_1": 9,
            "TEXCOORD_2": 10
          },
          "indices": 11,
          "material": 1,
          "mode": 4
        }
      ]
    },
    {
      "name": "obj0_mat0_2",
      "primitives": [
        {
          "attributes": {
            "NORMAL": 13,
            "POSITION": 12,
            "TEXCOORD_0": 14,
            "TEXCOORD_1": 15,
            "TEXCOORD_2": 16
          },
          "indices": 17,
          "material": 2,
          "mode": 4
        }
      ]
    },
    {
      "name": "obj0_mat0_3",
      "primitives": [
        {
          "attributes": {
            "NORMAL": 19,
            "POSITION": 18,
            "TEXCOORD_0": 20,
            "TEXCOORD_1": 21,
            "TEXCOORD_2": 22
          },
          "indices": 23,
          "material": 3,
          "mode": 4
        }
      ]
    },
    {
      "name": "obj0_mat0_4",
      "primitives": [
        {
          "attributes": {
            "NORMAL": 25,
            "POSITION": 24,
            "TEXCOORD_0": 26,
            "TEXCOORD_1": 27,
            "TEXCOORD_2": 28
          },
          "indices": 29,
          "material": 4,
          "mode": 4
        }
      ]
    },
    {
      "name": "obj0_mat0_5",
      "primitives": [
        {
          "attributes": {
            "NORMAL": 31,
            "POSITION": 30,
            "TEXCOORD_0": 32,
            "TEXCOORD_1": 33,
            "TEXCOORD_2": 34
          },
          "indices": 35,
          "material": 5,
          "mode": 4
        }
      ]
    },
    {
      "name": "obj0_mat0_6",
      "primitives": [
        {
          "attributes": {
            "NORMAL": 37,
            "POSITION": 36,
            "TEXCOORD_0": 38,
            "TEXCOORD_1": 39,
            "TEXCOORD_2": 40
          },
          "indices": 41,
          "material": 6,
          "mode": 4
        }
      ]
    },
    {
      "name": "obj0_mat0_7",
      "primitives": [
        {
          "attributes": {
            "NORMAL": 43,
            "POSITION": 42,
            "TEXCOORD_0": 44,
            "TEXCOORD_1": 45,
            "TEXCOORD_2": 46
          },
          "indices": 47,
          "material": 7,
          "mode": 4
        }
      ]
    },
    {
      "name": "obj0_mat0_8",
      "primitives": [
        {
          "attributes": {
            "NORMAL": 49,
            "POSITION": 48,
            "TEXCOORD_0": 50,
            "TEXCOORD_1": 51,
            "TEXCOORD_2": 52
          },
          "indices": 53,
          "material": 8,
          "mode": 4
        }
      ]
    }
  ],
  "nodes": [
    {
      "children": [
        1
      ],
      "matrix": [
        1.0,
        0.0,
        0.0,
        0.0,
        0.0,
        2.220446049250313e-16,
        -1.0,
        0.0,
        0.0,
        1.0,
        2.220446049250313e-16,
        0.0,
        0.0,
        0.0,
        0.0,
        1.0
      ],
      "name": "Sketchfab_model"
    },
    {
      "children": [
        2
      ],
      "matrix": [
        1.0,
        0.0,
        0.0,
        0.0,
        0.0,
        2.220446049250313e-16,
        1.0,
        0.0,
        0.0,
        -1.0,
        2.220446049250313e-16,
        0.0,
        0.0,
        0.0,
        0.0,
        1.0
      ],
      "name": "USDRoot"
    },
    {
      "children": [
        3
      ],
      "name": "Tank_13"
    },
    {
      "children": [
        4,
        5,
        6,
        7,
        8,
        9,
        10,
        11,
        12
      ],
      "name": "Geom"
    },
    {
      "mesh": 0,
      "name": "obj0_mat0_0"
    },
    {
      "mesh": 1,
      "name": "obj0_mat0_1"
    },
    {
      "mesh": 2,
      "name": "obj0_mat0_2"
    },
    {
      "mesh": 3,
      "name": "obj0_mat0_3"
    },
    {
      "mesh": 4,
      "name": "obj0_mat0_4"
    },
    {
      "mesh": 5,
      "name": "obj0_mat0_5"
    },
    {
      "mesh": 6,
      "name": "obj0_mat0_6"
    },
    {
      "mesh": 7,
      "name": "obj0_mat0_7"
    },
    {
      "mesh": 8,
      "name": "obj0_mat0_8"
    }
  ],
  "samplers": [
    {
      "magFilter": 9729,
      "minFilter": 9987,
      "wrapS": 10497,
      "wrapT": 10497
    }
  ],
  "scene": 0,
  "scenes": [
    {
      "name": "Sketchfab_Scene",
      "nodes": [
        0
      ]
    }
  ],
  "textures": [
    {
      "sampler": 0,
      "source": 0
    },
    {
      "sampler": 0,
      "source": 1
    },
    {
      "sampler": 0,
      "source": 2
    },
    {
      "sampler": 0,
      "source": 3
    },
    {
      "sampler": 0,
      "source": 4
    },
    {
      "sampler": 0,
      "source": 5
    },
    {
      "sampler": 0,
      "source": 6
    },
    {
      "sampler": 0,
      "source": 7
    },
    {
      "sampler": 0,
      "source": 8
    },
    {
      "sampler": 0,
      "source": 9
    },
    {
      "sampler": 0,
      "source": 10
    },
    {
      "sampler": 0,
      "source": 11
    },
    {
      "sampler": 0,
      "source": 12
    },
    {
      "sampler": 0,
      "source": 13
    },
    {
      "sampler": 0,
      "source": 14
    },
    {
      "sampler": 0,
      "source": 15
    },
    {
      "sampler": 0,
      "source": 16
    },
    {
      "sampler": 0,
      "source": 17
    }
  ]
}
