{
  "accessors": [
    {
      "bufferView": 2,
      "componentType": 5126,
      "count": 166,
      "max": [
        7.28924560546875,
        4.968828201293945,
        0.04432874545454979
      ],
      "min": [
        -7.022289752960205,
        -4.982966899871826,
        0.012263721786439419
      ],
      "type": "VEC3"
    },
    {
      "bufferView": 2,
      "byteOffset": 1992,
      "componentType": 5126,
      "count": 166,
      "max": [
        1.0,
        1.0,
        1.0
      ],
      "min": [
        -1.0,
        -1.0,
        -1.0
      ],
      "type": "VEC3"
    },
    {
      "bufferView": 3,
      "componentType": 5126,
      "count": 166,
      "max": [
        1.0,
        3.3289857128693257e-06,
        1.0,
        1.0
      ],
      "min": [
        -1.0,
        -3.563700829545269e-06,
        -1.0,
        1.0
      ],
      "type": "VEC4"
    },
    {
      "bufferView": 1,
      "componentType": 5126,
      "count": 166,
      "max": [
        0.984124481678009,
        0.998046875
      ],
      "min": [
        0.001953125,
        0.001953125
      ],
      "type": "VEC2"
    },
    {
      "bufferView": 0,
      "componentType": 5125,
      "count": 456,
      "type": "SCALAR"
    }
  ],
  "asset": {
    "extras": {
      "author": "DRoNWiN (https://sketchfab.com/dronwin)",
      "license": "CC-BY-4.0 (http://creativecommons.org/licenses/by/4.0/)",
      "source": "https://sketchfab.com/3d-models/razer-sphex-v2-761131d338f747688107cd88559784af",
      "title": "Razer Sphex V2"
    },
    "generator": "Sketchfab-11.30.0",
    "version": "2.0"
  },
  "bufferViews": [
    {
      "buffer": 0,
      "byteLength": 1824,
      "name": "floatBufferViews",
      "target": 34963
    },
    {
      "buffer": 0,
      "byteLength": 1328,
      "byteOffset": 1824,
      "byteStride": 8,
      "name": "floatBufferViews",
      "target": 34962
    },
    {
      "buffer": 0,
      "byteLength": 3984,
      "byteOffset": 3152,
      "byteStride": 12,
      "name": "floatBufferViews",
      "target": 34962
    },
    {
      "buffer": 0,
      "byteLength": 2656,
      "byteOffset": 7136,
      "byteStride": 16,
      "name": "floatBufferViews",
      "target": 34962
    }
  ],
  "buffers": [
    {
      "byteLength": 9792,
      "uri": "scene.bin"
    }
  ],
  "images": [
    {
      "uri": "textures/Razer_Sphex_V2_baseColor.jpeg"
    },
    {
      "uri": "textures/Razer_Sphex_V2_metallicRoughness.png"
    },
    {
      "uri": "textures/Razer_Sphex_V2_normal.png"
    }
  ],
  "materials": [
    {
      "doubleSided": true,
      "name": "Razer_Sphex_V2",
      "normalTexture": {
        "index": 2
      },
      "pbrMetallicRoughness": {
        "baseColorTexture": {
          "index": 0
        },
        "metallicFactor": 0.0,
        "metallicRoughnessTexture": {
          "index": 1
        }
      }
    }
  ],
  "meshes": [
    {
      "name": "Razer_Sphex_V2_Razer_Sphex_V2_0",
      "primitives": [
        {
          "attributes": {
            "NORMAL": 1,
            "POSITION": 0,
            "TANGENT": 2,
            "TEXCOORD_0": 3
          },
          "indices": 4,
          "material": 0,
          "mode": 4
        }
      ]
    }
  ],
  "nodes": [
    {
      "children": [
        1
      ],
      "matrix": [
        1.0,
        0.0,
        0.0,
        0.0,
        0.0,
        2.220446049250313e-16,
        -1.0,
        0.0,
        0.0,
        1.0,
        2.220446049250313e-16,
        0.0,
        0.0,
        0.0,
        0.0,
        1.0
      ],
      "name": "Sketchfab_model"
    },
    {
      "children": [
        2
      ],
      "matrix": [
        1.0,
        0.0,
        0.0,
        0.0,
        0.0,
        0.0,
        1.0,
        0.0,
        0.0,
        -1.0,
        0.0,
        0.0,
        0.0,
        0.0,
        0.0,
        1.0
      ],
      "name": "Razer_Sphex_V2.FBX"
    },
    {
      "children": [
        3
      ],
      "name": "RootNode"
    },
    {
      "children": [
        4
      ],
      "matrix": [
        1.0,
        0.0,
        0.0,
        0.0,
        0.0,
        2.220446049250313e-16,
        -1.0,
        0.0,
        0.0,
        1.0,
        2.220446049250313e-16,
        0.0,
        0.0,
        -1.7815211322158575e-05,
        -1.511332205217375e-11,
        1.0
      ],
      "name": "Razer_Sphex_V2"
    },
    {
      "children": [
        5
      ],
      "matrix": [
        1.0,
        0.0,
        -0.0,
        0.0,
        0.0,
        1.0,
        0.0,
        0.0,
        0.0,
        0.0,
        1.0,
        0.0,
        0.0,
        -1.184848219537571e-09,
        -0.012263910844922066,
        1.0
      ],
      "name": "Object_4"
    },
    {
      "mesh": 0,
      "name": "Razer_Sphex_V2_Razer_Sphex_V2_0"
    }
  ],
  "samplers": [
    {
      "magFilter": 9729,
      "minFilter": 9987,
      "wrapS": 10497,
      "wrapT": 10497
    }
  ],
  "scene": 0,
  "scenes": [
    {
      "name": "Sketchfab_Scene",
      "nodes": [
        0
      ]
    }
  ],
  "textures": [
    {
      "sampler": 0,
      "source": 0
    },
    {
      "sampler": 0,
      "source": 1
    },
    {
      "sampler": 0,
      "source": 2
    }
  ]
}
